<?xml version="1.0" standalone="no"?>
<!DOCTYPE svg PUBLIC "-//W3C//DTD SVG 20010904//EN"
 "http://www.w3.org/TR/2001/REC-SVG-20010904/DTD/svg10.dtd">
<svg version="1.0" xmlns="http://www.w3.org/2000/svg"
 width="700.000000pt" height="700.000000pt" viewBox="0 0 700.000000 700.000000"
 preserveAspectRatio="xMidYMid meet">
<metadata>
Created by potrace 1.14, written by Peter Selinger 2001-2017
</metadata>
<g transform="translate(0.000000,700.000000) scale(0.100000,-0.100000)"
fill="#000000" stroke="none">
<path d="M0 3500 l0 -3500 3500 0 3500 0 0 3500 0 3500 -3500 0 -3500 0 0
-3500z m5839 2388 c101 -237 176 -523 202 -776 15 -147 6 -513 -16 -652 -98
-622 -405 -1236 -923 -1847 -60 -70 -150 -172 -201 -225 l-92 -97 -135 -502
c-74 -276 -132 -504 -130 -507 15 -14 297 141 471 259 295 200 610 507 830
807 33 45 65 80 70 78 6 -2 63 -41 127 -86 73 -51 115 -86 111 -93 -16 -28
-132 -179 -197 -257 -413 -496 -947 -885 -1461 -1063 -102 -35 -382 -103 -391
-95 -2 3 58 239 135 524 77 285 138 520 137 521 -1 1 -67 -52 -146 -118 -311
-259 -760 -580 -1070 -766 -167 -100 -470 -266 -476 -261 -2 3 203 769 456
1703 253 935 460 1701 460 1702 0 2 -250 2 -556 1 l-557 -3 2 -240 c2 -332
-20 -529 -95 -826 -149 -594 -463 -1170 -953 -1749 -58 -69 -235 -258 -392
-420 -328 -337 -379 -388 -379 -375 1 6 238 888 528 1960 l528 1950 197 3
c179 2 197 4 197 20 0 28 -47 198 -91 327 -104 306 -273 621 -483 900 -33 44
-138 160 -235 258 l-175 177 1652 0 c1317 0 1650 -3 1647 -12 -3 -7 -57 -240
-120 -518 -64 -277 -117 -505 -119 -507 -5 -5 -280 59 -289 67 -4 4 26 154 68
335 41 180 75 329 75 331 0 6 -757 5 -1517 -3 l-691 -6 69 -103 c258 -385 424
-778 525 -1241 l4 -23 781 0 781 0 -6 -22 c-3 -13 -190 -702 -415 -1533 -225
-830 -408 -1512 -406 -1513 9 -9 341 221 565 391 288 219 780 649 794 694 3
10 237 884 521 1943 284 1059 521 1943 527 1965 l11 40 98 -200 c54 -110 120
-252 148 -317z"/>
<path d="M5323 4212 c-182 -680 -330 -1238 -328 -1240 1 -1 38 46 82 105 539
728 757 1462 637 2149 -21 127 -44 224 -52 224 -4 0 -156 -557 -339 -1238z"/>
<path d="M1966 4132 c-10 -16 -677 -2494 -673 -2499 3 -2 34 33 70 79 501 644
770 1289 818 1967 10 142 6 364 -7 434 l-6 27 -98 0 c-54 0 -101 -4 -104 -8z"/>
</g>
</svg>
